<svg xmlns="http://www.w3.org/2000/svg" xmlns:xlink="http://www.w3.org/1999/xlink" width="500" zoomAndPan="magnify" viewBox="0 0 375 374.999991" height="500" preserveAspectRatio="xMidYMid meet" version="1.0"><defs><clipPath id="f05bc94b87"><path d="M 96.515625 74.28125 L 283.347656 74.28125 L 283.347656 266 L 96.515625 266 Z M 96.515625 74.28125 " clip-rule="nonzero"/></clipPath><clipPath id="559fbdfc15"><path d="M 113.765625 74.28125 L 266.097656 74.28125 C 270.675781 74.28125 275.0625 76.101562 278.296875 79.335938 C 281.53125 82.570312 283.347656 86.957031 283.347656 91.53125 L 283.347656 248.730469 C 283.347656 253.304688 281.53125 257.695312 278.296875 260.929688 C 275.0625 264.164062 270.675781 265.980469 266.097656 265.980469 L 113.765625 265.980469 C 109.1875 265.980469 104.800781 264.164062 101.566406 260.929688 C 98.332031 257.695312 96.515625 253.304688 96.515625 248.730469 L 96.515625 91.53125 C 96.515625 86.957031 98.332031 82.570312 101.566406 79.335938 C 104.800781 76.101562 109.1875 74.28125 113.765625 74.28125 Z M 113.765625 74.28125 " clip-rule="nonzero"/></clipPath><clipPath id="a040546ff0"><path d="M 0.515625 0.28125 L 187.347656 0.28125 L 187.347656 192 L 0.515625 192 Z M 0.515625 0.28125 " clip-rule="nonzero"/></clipPath><clipPath id="1de167fef8"><path d="M 17.765625 0.28125 L 170.097656 0.28125 C 174.675781 0.28125 179.0625 2.101562 182.296875 5.335938 C 185.53125 8.570312 187.347656 12.957031 187.347656 17.53125 L 187.347656 174.730469 C 187.347656 179.304688 185.53125 183.695312 182.296875 186.929688 C 179.0625 190.164062 174.675781 191.980469 170.097656 191.980469 L 17.765625 191.980469 C 13.1875 191.980469 8.800781 190.164062 5.566406 186.929688 C 2.332031 183.695312 0.515625 179.304688 0.515625 174.730469 L 0.515625 17.53125 C 0.515625 12.957031 2.332031 8.570312 5.566406 5.335938 C 8.800781 2.101562 13.1875 0.28125 17.765625 0.28125 Z M 17.765625 0.28125 " clip-rule="nonzero"/></clipPath><clipPath id="9dcd3bc06c"><rect x="0" width="188" y="0" height="192"/></clipPath><clipPath id="d2db76a864"><path d="M 62 57 L 339.980469 57 L 339.980469 327 L 62 327 Z M 62 57 " clip-rule="nonzero"/></clipPath><clipPath id="5c3235f302"><path d="M 63 57 L 339.980469 57 L 339.980469 327 L 63 327 Z M 63 57 " clip-rule="nonzero"/></clipPath><clipPath id="c4218fc1de"><path d="M 163 103 L 339.980469 103 L 339.980469 244 L 163 244 Z M 163 103 " clip-rule="nonzero"/></clipPath></defs><g clip-path="url(#f05bc94b87)"><g clip-path="url(#559fbdfc15)"><g transform="matrix(1, 0, 0, 1, 96, 74)"><g clip-path="url(#9dcd3bc06c)"><g clip-path="url(#a040546ff0)"><g clip-path="url(#1de167fef8)"><path fill="#ffffff" d="M 0.515625 0.28125 L 187.347656 0.28125 L 187.347656 192.226562 L 0.515625 192.226562 Z M 0.515625 0.28125 " fill-opacity="1" fill-rule="nonzero"/></g></g></g></g></g></g><g clip-path="url(#d2db76a864)"><path fill="#060605" d="M 101.410156 57.148438 C 102.148438 57.144531 102.882812 57.140625 103.644531 57.136719 C 106.089844 57.125 108.539062 57.128906 110.984375 57.132812 L 116.277344 57.117188 C 121.054688 57.101562 125.828125 57.101562 130.605469 57.105469 C 134.601562 57.105469 138.59375 57.101562 142.589844 57.09375 C 152.019531 57.082031 161.449219 57.082031 170.875 57.089844 C 180.585938 57.09375 190.296875 57.082031 200.003906 57.058594 C 208.355469 57.039062 216.707031 57.03125 225.058594 57.039062 C 230.039062 57.039062 235.023438 57.035156 240.003906 57.019531 C 244.691406 57.007812 249.378906 57.007812 254.066406 57.023438 C 255.777344 57.027344 257.492188 57.023438 259.207031 57.011719 C 269.792969 56.960938 279.1875 57.417969 288.664062 62.535156 C 296.140625 68.550781 301.144531 73.96875 304.953125 82.886719 C 306.761719 88.082031 307.167969 92.835938 307.183594 98.324219 L 307.195312 100.457031 C 307.203125 102.804688 307.207031 105.152344 307.207031 107.503906 L 307.222656 112.566406 C 307.238281 117.148438 307.246094 121.730469 307.25 126.308594 C 307.253906 129.175781 307.257812 132.039062 307.261719 134.90625 C 307.277344 143.878906 307.285156 152.851562 307.292969 161.828125 C 307.296875 172.167969 307.316406 182.507812 307.347656 192.851562 C 307.371094 200.855469 307.382812 208.859375 307.382812 216.863281 C 307.382812 221.640625 307.390625 226.414062 307.410156 231.191406 C 307.425781 235.6875 307.429688 240.183594 307.421875 244.679688 C 307.417969 246.324219 307.425781 247.96875 307.433594 249.609375 C 307.488281 258.445312 307.429688 266.894531 303.765625 275.109375 C 298.53125 283.613281 291.125 290.191406 283.617188 296.652344 C 280.71875 299.222656 277.898438 301.867188 275.082031 304.527344 C 254.816406 323.640625 254.816406 323.640625 248.257812 326.261719 C 245.921875 326.628906 245.921875 326.628906 243.496094 326.671875 L 241.09375 326.765625 C 237.167969 326.015625 235.007812 324.457031 231.933594 321.910156 C 230.058594 319.191406 228.679688 316.332031 227.308594 313.335938 L 226.195312 311.046875 C 224.144531 306.757812 222.539062 302.480469 221.050781 297.964844 L 219.113281 297.976562 C 203.503906 298.074219 187.894531 298.144531 172.285156 298.191406 C 164.738281 298.210938 157.191406 298.242188 149.640625 298.292969 C 142.351562 298.339844 135.0625 298.367188 127.773438 298.378906 C 124.996094 298.386719 122.21875 298.402344 119.445312 298.425781 C 115.546875 298.457031 111.644531 298.460938 107.746094 298.457031 L 104.300781 298.507812 C 96.457031 298.460938 89.941406 296.941406 82.824219 293.609375 C 76.28125 289.683594 71.535156 284.902344 67.589844 278.375 C 62.785156 268.742188 62.609375 259.25 62.671875 248.730469 C 62.664062 246.976562 62.65625 245.222656 62.648438 243.46875 C 62.628906 238.738281 62.636719 234.011719 62.648438 229.28125 C 62.660156 224.316406 62.648438 219.347656 62.644531 214.382812 C 62.636719 206.046875 62.644531 197.707031 62.667969 189.371094 C 62.691406 179.753906 62.683594 170.132812 62.660156 160.515625 C 62.640625 152.234375 62.636719 143.949219 62.648438 135.667969 C 62.65625 130.734375 62.65625 125.796875 62.640625 120.859375 C 62.628906 116.21875 62.636719 111.578125 62.664062 106.9375 C 62.667969 105.242188 62.664062 103.546875 62.65625 101.851562 C 62.609375 92.511719 62.960938 84.285156 67.589844 75.933594 C 71.917969 69.707031 77.292969 64.554688 83.785156 60.628906 C 89.609375 58.050781 95.082031 57.160156 101.410156 57.148438 M 170.984375 110.761719 C 167.261719 114.183594 164.140625 118.007812 162.277344 122.734375 C 161.664062 128.890625 161.546875 134.839844 163.636719 140.695312 L 165.542969 143.414062 L 167.3125 146.269531 C 170.992188 149.953125 174.699219 151.785156 179.691406 153.210938 C 184.671875 153.910156 189.277344 153.90625 194.128906 152.492188 C 198.925781 150.375 202.398438 147.371094 205.605469 143.246094 C 207.675781 140.035156 208.5 137.398438 209.078125 133.617188 C 209.203125 128.898438 208.824219 124.65625 206.925781 120.296875 C 204.03125 115.34375 200.722656 111.847656 196.015625 108.585938 C 191.78125 106.652344 187.792969 105.921875 183.113281 106.074219 C 178.617188 106.722656 174.808594 108.339844 170.984375 110.761719 M 251.132812 133.300781 C 247.757812 135.957031 244.796875 139.011719 241.796875 142.078125 L 239.601562 144.292969 C 238.039062 145.875 236.476562 147.457031 234.914062 149.042969 C 232.445312 151.546875 229.96875 154.050781 227.488281 156.546875 C 220.445312 163.644531 213.410156 170.757812 206.386719 177.875 C 202.082031 182.238281 197.769531 186.589844 193.449219 190.933594 C 191.804688 192.589844 190.167969 194.25 188.53125 195.914062 C 186.25 198.238281 183.957031 200.550781 181.65625 202.855469 L 179.621094 204.953125 C 176.839844 207.714844 174.9375 209.566406 171.195312 210.859375 L 168.808594 210.894531 C 166.75 209.679688 166.75 209.679688 164.800781 207.765625 L 162.578125 205.625 L 160.234375 203.273438 L 157.796875 200.90625 C 153.691406 196.902344 149.652344 192.828125 145.617188 188.761719 L 143.390625 186.519531 C 141.996094 185.109375 140.609375 183.691406 139.226562 182.269531 L 137.324219 180.324219 L 135.679688 178.625 C 133.746094 176.953125 131.988281 175.945312 129.625 174.976562 C 126.417969 174.667969 124.035156 174.496094 120.917969 174.976562 C 116.9375 176.929688 114.867188 178.667969 112.277344 182.253906 C 111.019531 186.183594 110.558594 188.890625 111.300781 192.941406 C 115.152344 204.414062 130.855469 215.59375 139.246094 223.980469 C 141.957031 226.695312 144.65625 229.414062 147.355469 232.132812 C 149.082031 233.863281 150.808594 235.59375 152.539062 237.320312 L 154.972656 239.78125 L 157.253906 242.050781 L 159.242188 244.046875 C 161.257812 245.78125 163.101562 246.863281 165.542969 247.898438 C 167.886719 248.320312 167.886719 248.320312 170.304688 248.308594 L 172.710938 248.402344 C 176.46875 247.683594 178.769531 245.777344 181.867188 243.546875 C 183.925781 241.675781 185.9375 239.757812 187.902344 237.789062 L 189.613281 236.09375 C 191.453125 234.257812 193.292969 232.421875 195.125 230.578125 L 198.976562 226.734375 C 201.65625 224.054688 204.332031 221.375 207.007812 218.691406 C 210.441406 215.246094 213.878906 211.808594 217.328125 208.378906 C 219.976562 205.734375 222.617188 203.09375 225.257812 200.445312 C 226.527344 199.175781 227.796875 197.90625 229.070312 196.640625 C 230.839844 194.878906 232.601562 193.105469 234.359375 191.335938 L 237.40625 188.285156 L 239.550781 185.859375 L 239.550781 183.683594 L 241.476562 182.871094 C 244.308594 181.28125 245.820312 179.566406 247.917969 177.085938 C 253.601562 170.574219 259.734375 164.554688 265.929688 158.53125 L 268.289062 156.210938 L 270.414062 154.140625 C 272.242188 152.078125 273.347656 150.316406 274.378906 147.769531 C 274.925781 144.050781 274.925781 144.050781 274.378906 140.148438 C 272.378906 136.140625 270.691406 134.0625 266.964844 131.578125 C 260.730469 129.378906 256.582031 129.476562 251.132812 133.300781 M 439.527344 113.324219 C 446.394531 117.128906 450.917969 121.441406 455.246094 127.921875 C 459.007812 134.460938 459.566406 141.457031 460.492188 148.855469 L 432.195312 148.855469 L 428.929688 141.238281 C 424.828125 137.136719 421.421875 135.113281 415.871094 133.617188 C 408.460938 132.964844 400.136719 132.292969 393.21875 135.386719 C 389.679688 137.769531 389.679688 137.769531 387.503906 140.964844 C 386.160156 145.613281 386.636719 148.464844 387.570312 153.210938 L 388.660156 156.476562 C 390.632812 157.714844 390.632812 157.714844 393.011719 158.652344 L 395.285156 159.667969 C 404.324219 163.40625 413.675781 165.835938 423.113281 168.351562 C 434.445312 171.476562 444.25 175.289062 452.898438 183.433594 C 457.714844 188.867188 460.292969 195.117188 461.988281 202.121094 C 463.285156 210.074219 462.535156 217.597656 459.8125 225.179688 C 456.863281 231.835938 452.925781 237.464844 447.359375 242.1875 C 439.625 247.710938 430.730469 251.078125 421.3125 252.253906 C 406.136719 253.179688 391.605469 253.074219 377.691406 246.257812 C 369.667969 241.542969 363.378906 235.621094 358.65625 227.582031 C 355.398438 220.996094 354.007812 214.960938 353.832031 207.628906 C 357.441406 206.796875 361.101562 206.398438 364.804688 206.433594 L 367.875 206.445312 L 371.042969 206.472656 L 374.269531 206.488281 C 376.890625 206.5 379.507812 206.519531 382.128906 206.539062 L 382.9375 208.902344 C 384.859375 214.429688 384.859375 214.429688 388.035156 219.28125 C 392.128906 222.785156 396.207031 224.519531 401.378906 225.722656 C 409.425781 226.632812 416.625 226.554688 424.355469 223.917969 C 427.015625 222.84375 427.015625 222.84375 430.085938 220.554688 C 432.121094 217.535156 432.71875 216.019531 433.285156 212.527344 C 433.460938 209.300781 433.289062 207.640625 432.128906 204.566406 C 428.007812 199.917969 423.820312 197.8125 418.046875 195.792969 C 413.632812 194.378906 409.199219 193.148438 404.714844 191.984375 C 377.085938 184.804688 377.085938 184.804688 367.464844 175.796875 C 362.910156 170.566406 359.445312 164.730469 357.777344 157.972656 C 356.199219 148.65625 357.128906 140.332031 360.363281 131.441406 C 363.792969 124.976562 368.125 119.585938 374.199219 115.453125 C 394.191406 104.003906 418.859375 103.121094 439.527344 113.324219 M 542.121094 147.292969 C 550.71875 150.410156 558.445312 154.917969 564.773438 161.578125 C 571.601562 170.105469 575.625 179.839844 577.589844 190.539062 C 578.886719 202.246094 577.503906 212.835938 573.15625 223.8125 C 570.707031 228.871094 567.757812 232.960938 563.890625 237.015625 L 562.167969 238.832031 C 555.8125 244.847656 547.429688 249.007812 539.035156 251.324219 C 528.835938 253.691406 517.320312 253.339844 507.292969 250.484375 C 498.3125 247.261719 490.441406 242.769531 483.917969 235.742188 C 477.136719 227.589844 473.789062 218.375 471.648438 208.035156 C 470.738281 195.75 471.78125 183.910156 476.953125 172.527344 C 481.242188 164.722656 487.324219 158.054688 494.503906 152.800781 C 508.644531 144.25 526.320312 142.945312 542.121094 147.292969 M 510.476562 174.296875 C 506.5 177.472656 503.597656 180.582031 501.375 185.179688 C 498.769531 192.023438 498.117188 198.289062 499.265625 205.519531 C 500.714844 211.742188 503.425781 216.582031 507.746094 221.273438 C 510.414062 223.722656 512.980469 225.140625 516.339844 226.472656 C 522.042969 227.535156 527.066406 228.070312 532.722656 226.511719 C 537.085938 224.800781 540.421875 222.777344 543.617188 219.328125 C 546.671875 215.300781 548.769531 211.527344 549.738281 206.539062 C 550.425781 199.375 550.679688 192.515625 547.835938 185.792969 C 545.558594 181.507812 543.285156 177.621094 539.21875 174.8125 C 534.160156 171.78125 530.710938 170.707031 524.910156 170.417969 C 519.535156 170.539062 515.058594 171.261719 510.476562 174.296875 M 632.253906 145.25 L 634.851562 145.269531 C 644.113281 145.460938 651.753906 147.300781 659.9375 151.714844 C 665.546875 155.347656 669.296875 159.472656 672.726562 165.183594 C 677.234375 175.050781 677.667969 184.589844 677.503906 195.230469 C 677.496094 196.824219 677.492188 198.414062 677.484375 200.007812 C 677.46875 204.152344 677.425781 208.292969 677.378906 212.4375 C 677.332031 216.683594 677.3125 220.933594 677.292969 225.179688 C 677.246094 233.476562 677.167969 241.777344 677.082031 250.074219 L 652.046875 250.074219 L 650.960938 240.28125 L 649.238281 241.792969 C 643.027344 246.96875 637.144531 250.527344 629.191406 252.253906 C 620.070312 253.15625 611.542969 252.617188 603.070312 248.988281 C 597.171875 245.863281 592.667969 241.421875 588.921875 235.925781 C 586.300781 230.199219 585 224.109375 585.289062 217.808594 C 586.042969 212.554688 587.457031 207.9375 590.011719 203.273438 C 594.101562 198.292969 598.921875 194.675781 604.773438 191.984375 C 619.46875 186.890625 635.636719 187.746094 650.960938 188.039062 C 650.644531 186.289062 650.324219 184.542969 649.992188 182.800781 L 649.453125 179.851562 C 648.871094 176.933594 648.871094 176.933594 646.808594 173.890625 C 644.203125 171.503906 642.324219 170.640625 638.988281 169.535156 C 633.472656 168.917969 628.472656 169.039062 623.207031 170.828125 C 620.183594 173.019531 618.84375 174.90625 617.21875 178.242188 L 616.132812 180.417969 L 590.011719 181.507812 C 588.921875 178.242188 588.921875 178.242188 589.421875 175.210938 C 591.664062 167.175781 594.460938 161.449219 600.355469 155.488281 C 609.558594 147.765625 620.472656 145.164062 632.253906 145.25 M 617.285156 209.125 C 614.988281 210.730469 614.988281 210.730469 613.808594 212.875 C 612.425781 216.355469 612.78125 219.078125 613.292969 222.730469 C 613.851562 225.332031 613.851562 225.332031 616.402344 227.761719 C 621.246094 230.402344 625.65625 230.824219 631.171875 230.710938 C 635.566406 230.292969 639.40625 229.242188 643.339844 227.21875 C 646.3125 225.054688 648.183594 222.871094 649.871094 219.601562 C 651.050781 215.28125 651.8125 211.015625 652.046875 206.539062 L 650.957031 205.453125 C 647.683594 205.3125 644.441406 205.25 641.164062 205.25 L 638.4375 205.207031 C 631.03125 205.191406 624.050781 205.960938 617.285156 209.125 M 856.199219 146.617188 C 862.253906 149.039062 867.441406 151.699219 871.898438 156.476562 C 877.125 163.582031 880.015625 170.6875 881.695312 179.332031 C 882.113281 184.882812 882.078125 190.414062 882.015625 195.976562 C 882.007812 197.546875 882.003906 199.113281 882 200.683594 C 881.988281 204.769531 881.957031 208.859375 881.917969 212.949219 C 881.886719 217.136719 881.871094 221.324219 881.855469 225.511719 C 881.816406 233.699219 881.765625 241.886719 881.695312 250.074219 L 854.484375 250.074219 L 854.4375 244.316406 C 854.378906 238.015625 854.3125 231.710938 854.230469 225.410156 C 854.179688 221.589844 854.136719 217.773438 854.109375 213.953125 C 854.074219 209.554688 854.015625 205.15625 853.953125 200.757812 L 853.933594 196.636719 C 853.8125 189.402344 853.375 183.675781 850.132812 177.152344 C 847.257812 174.015625 844.417969 171.984375 840.335938 170.625 C 834.445312 170.019531 829.175781 170.492188 823.710938 172.828125 C 820.710938 174.523438 819.222656 176.382812 817.480469 179.332031 C 814.726562 186.589844 814.925781 193.8125 814.855469 201.503906 L 814.789062 205.714844 C 814.734375 209.386719 814.691406 213.0625 814.648438 216.734375 C 814.605469 220.492188 814.550781 224.25 814.496094 228.007812 C 814.390625 235.363281 814.304688 242.71875 814.214844 250.074219 L 787.007812 250.074219 L 787.007812 147.769531 L 813.128906 147.769531 L 814.214844 158.652344 L 816.324219 155.726562 C 819.898438 151.417969 824.390625 148.953125 829.453125 146.679688 C 837.378906 143.945312 848.175781 144.503906 856.199219 146.617188 M 694.496094 104.234375 L 720.617188 104.234375 L 720.617188 250.074219 L 694.496094 250.074219 Z M 742.382812 147.769531 L 769.59375 147.769531 L 769.59375 250.074219 L 742.382812 250.074219 Z M 764.152344 103.144531 C 767.824219 104.914062 767.824219 104.914062 770.679688 107.496094 C 772.980469 111.207031 773.863281 113.519531 774.085938 117.835938 C 773.945312 120.707031 773.625 123.230469 772.859375 126 C 770.316406 129.410156 767.902344 131.128906 764.355469 133.414062 C 760.929688 134.691406 758.042969 135.246094 754.375 135.085938 C 750.496094 134.417969 747.597656 132.820312 744.558594 130.355469 C 741.90625 127.429688 741.90625 127.429688 740.207031 123.824219 C 739.460938 119.613281 739.542969 115.863281 741 111.820312 C 742.648438 108.636719 744.417969 106.515625 747.28125 104.367188 C 753.101562 101.75 757.957031 101.777344 764.148438 103.144531 " fill-opacity="1" fill-rule="nonzero"/></g><g clip-path="url(#5c3235f302)"><path fill="#060605" d="M 742.382812 147.769531 L 769.59375 147.769531 L 769.59375 250.074219 L 742.382812 250.074219 Z M 744.558594 149.945312 L 743.472656 247.898438 L 767.414062 247.898438 L 767.414062 149.945312 Z M 787.007812 147.769531 L 813.128906 147.769531 L 813.128906 159.738281 L 810.949219 157.5625 L 810.949219 149.945312 L 789.183594 149.945312 L 789.183594 247.898438 L 812.039062 247.898438 C 812.027344 246.0625 812.015625 244.230469 812.003906 242.339844 C 811.96875 236.28125 811.945312 230.226562 811.925781 224.171875 C 811.914062 220.5 811.898438 216.828125 811.875 213.15625 C 811.851562 208.933594 811.835938 204.714844 811.828125 200.496094 L 811.792969 196.488281 L 811.792969 192.792969 L 811.777344 189.523438 L 812.039062 186.949219 L 814.214844 184.773438 L 814.214844 250.074219 L 787.007812 250.074219 Z M 64.324219 92.261719 L 65.410156 92.261719 L 65.414062 94.964844 C 65.457031 116.722656 65.523438 138.480469 65.613281 160.238281 C 65.65625 170.761719 65.691406 181.28125 65.707031 191.800781 C 65.71875 200.976562 65.75 210.148438 65.796875 219.324219 C 65.820312 224.175781 65.839844 229.03125 65.839844 233.886719 C 65.839844 238.460938 65.855469 243.039062 65.890625 247.613281 C 65.902344 249.289062 65.902344 250.960938 65.898438 252.632812 C 65.863281 262.9375 66.808594 271.292969 71.984375 280.355469 C 73.835938 283.285156 75.898438 285.851562 78.472656 288.167969 L 75.207031 288.167969 C 70.347656 284.140625 67.558594 278.773438 65.152344 273.054688 C 63.476562 268.40625 63.097656 264.421875 63.097656 259.460938 L 63.085938 255.132812 L 63.09375 250.390625 L 63.085938 245.390625 C 63.085938 240.867188 63.085938 236.34375 63.085938 231.820312 C 63.089844 227.085938 63.085938 222.351562 63.085938 217.617188 C 63.085938 209.667969 63.085938 201.71875 63.09375 193.769531 C 63.097656 184.578125 63.097656 175.386719 63.089844 166.195312 C 63.085938 158.304688 63.085938 150.414062 63.085938 142.523438 C 63.089844 137.8125 63.089844 133.097656 63.085938 128.386719 C 63.082031 123.953125 63.085938 119.523438 63.09375 115.09375 C 63.09375 113.464844 63.089844 111.839844 63.089844 110.210938 C 63.089844 107.992188 63.089844 105.773438 63.097656 103.554688 L 63.097656 99.789062 C 63.214844 97.078125 63.53125 94.839844 64.324219 92.261719 M 93.710938 57.433594 C 96.789062 57.15625 96.789062 57.15625 100.808594 57.15625 L 103.042969 57.144531 C 105.523438 57.136719 108.007812 57.144531 110.488281 57.152344 C 112.265625 57.148438 114.039062 57.144531 115.8125 57.140625 C 120.644531 57.128906 125.472656 57.132812 130.304688 57.140625 C 135.351562 57.144531 140.402344 57.140625 145.449219 57.136719 C 153.925781 57.132812 162.40625 57.136719 170.886719 57.148438 C 180.695312 57.160156 190.503906 57.15625 200.316406 57.144531 C 208.726562 57.136719 217.140625 57.132812 225.554688 57.136719 C 230.585938 57.144531 235.613281 57.140625 240.640625 57.136719 C 245.371094 57.128906 250.097656 57.132812 254.828125 57.144531 C 256.5625 57.148438 258.300781 57.148438 260.039062 57.144531 C 262.40625 57.136719 264.773438 57.144531 267.144531 57.15625 L 271.164062 57.15625 C 274.378906 57.433594 274.378906 57.433594 277.644531 59.609375 C 273.257812 60.660156 269.195312 60.816406 264.691406 60.785156 L 262.441406 60.777344 C 259.960938 60.761719 257.480469 60.742188 255 60.722656 L 249.660156 60.6875 C 244.828125 60.660156 240 60.625 235.167969 60.585938 C 230.121094 60.550781 225.070312 60.519531 220.019531 60.488281 C 210.460938 60.425781 200.902344 60.359375 191.34375 60.292969 C 180.460938 60.214844 169.574219 60.140625 158.691406 60.070312 C 136.308594 59.921875 113.921875 59.769531 91.53125 59.609375 Z M 850.132812 174.976562 L 852.308594 174.976562 C 855.484375 180.476562 856.96875 185.308594 857.15625 191.679688 C 857.15625 194.300781 857.132812 196.917969 857.089844 199.539062 L 857.070312 203.742188 C 857.046875 207.398438 857.011719 211.054688 856.960938 214.707031 C 856.917969 218.453125 856.898438 222.195312 856.875 225.9375 C 856.828125 233.257812 856.75 240.578125 856.664062 247.898438 L 880.605469 247.898438 L 880.605469 183.683594 L 881.695312 183.683594 L 881.695312 250.074219 L 854.484375 250.074219 L 854.4375 244.355469 C 854.378906 238.078125 854.3125 231.800781 854.230469 225.523438 C 854.179688 221.71875 854.140625 217.917969 854.109375 214.117188 C 854.074219 209.734375 854.015625 205.351562 853.953125 200.96875 L 853.933594 196.882812 C 853.800781 189.054688 852.890625 182.324219 850.132812 174.976562 M 666.195312 159.738281 C 668.226562 160.578125 668.226562 160.578125 670.550781 161.917969 C 671.851562 163.765625 671.851562 163.765625 672.863281 165.929688 L 673.890625 168.050781 C 676.226562 173.984375 677.351562 179.328125 677.328125 185.699219 L 677.328125 187.828125 C 677.328125 190.117188 677.308594 192.410156 677.292969 194.699219 L 677.285156 199.5 C 677.273438 203.6875 677.253906 207.875 677.230469 212.066406 C 677.207031 216.347656 677.195312 220.628906 677.1875 224.914062 C 677.164062 233.300781 677.125 241.6875 677.082031 250.074219 L 652.046875 250.074219 L 652.046875 239.191406 L 654.222656 240.28125 L 653.136719 247.898438 L 674.902344 247.898438 C 674.882812 238.757812 674.839844 229.617188 674.761719 220.476562 C 674.722656 216.230469 674.695312 211.988281 674.691406 207.742188 C 674.683594 203.632812 674.65625 199.527344 674.605469 195.421875 C 674.589844 193.863281 674.585938 192.308594 674.59375 190.75 C 674.617188 180.511719 673.253906 172.152344 668.375 163.003906 Z M 110.035156 184.773438 L 111.125 184.773438 L 111.253906 186.769531 C 111.777344 190.949219 112.46875 194.484375 114.9375 197.960938 C 123.804688 207.433594 133.007812 216.574219 142.210938 225.722656 L 147.425781 230.921875 C 151.648438 235.132812 155.871094 239.339844 160.101562 243.546875 L 156.835938 244.632812 L 153.113281 240.0625 C 150.839844 237.476562 148.402344 235.082031 145.953125 232.660156 L 142.753906 229.464844 L 141.097656 227.804688 L 136.089844 222.796875 L 134.464844 221.179688 C 132.949219 219.65625 131.433594 218.128906 129.921875 216.59375 C 127.523438 214.128906 127.523438 214.128906 124.863281 212.1875 C 120.890625 208.875 117.667969 205.085938 114.386719 201.097656 L 111.734375 197.902344 C 109.695312 193.90625 109.679688 191.097656 109.882812 186.6875 Z M 356.007812 217.425781 L 358.183594 217.425781 L 358.871094 219.738281 C 360.953125 226.15625 363.230469 231.226562 367.890625 236.152344 C 371.898438 239.601562 376.386719 242.160156 381.042969 244.632812 L 384.304688 242.457031 L 385.394531 247.898438 L 393.011719 248.988281 L 393.011719 250.074219 C 385.46875 249.65625 379.816406 247.582031 373.421875 243.546875 C 366.132812 238.191406 361.234375 232.484375 357.054688 224.476562 C 356.007812 221.777344 356.007812 221.777344 356.007812 217.425781 M 223.226562 301.230469 C 226.761719 305.507812 228.90625 310.410156 231.179688 315.425781 C 232.539062 318.277344 233.617188 320.460938 236.207031 322.339844 C 240.648438 323.628906 244.789062 323.8125 249.347656 322.996094 C 252.617188 321.1875 255.332031 319.019531 258.054688 316.464844 L 260.230469 317.554688 C 259.054688 318.601562 257.878906 319.644531 256.695312 320.683594 L 254.703125 322.445312 C 251.875 324.664062 249.496094 326.066406 245.921875 326.628906 L 243.496094 326.671875 L 241.09375 326.765625 C 237.160156 326.011719 235.011719 324.46875 231.933594 321.910156 C 230.015625 319.125 228.589844 316.195312 227.171875 313.132812 L 226.003906 310.757812 C 224.398438 307.421875 223.226562 304.972656 223.226562 301.230469 M 498.585938 151.03125 L 499.675781 153.210938 L 497.324219 154.730469 C 488.816406 160.527344 483.175781 166.386719 478.695312 175.683594 C 476.675781 180.464844 475.1875 185.019531 474.640625 190.214844 C 473.457031 188.421875 473.457031 188.421875 472.464844 185.859375 C 473.761719 177.90625 477.476562 170.839844 482.261719 164.449219 C 486.914062 159.035156 492.019531 153.996094 498.585938 151.03125 M 539.945312 174.976562 C 543.007812 175.792969 543.007812 175.792969 546.476562 177.152344 C 548.515625 179.46875 548.515625 179.46875 549.738281 181.507812 L 548.652344 183.683594 L 550.828125 184.773438 C 552.695312 193.175781 552.761719 202.519531 550.828125 210.894531 L 548.652344 210.894531 L 548.804688 206.953125 C 549.363281 196.03125 549.363281 196.03125 546.746094 185.589844 C 545.59375 183.441406 545.59375 183.441406 544.296875 181.507812 L 543.039062 179.480469 C 542.046875 177.953125 541.015625 176.453125 539.945312 174.976562 M 209.078125 122.734375 L 211.253906 124.910156 C 211.445312 130.371094 210.78125 136.015625 208.738281 141.101562 C 206.382812 145.460938 204.421875 148.6875 200.242188 151.488281 C 197.769531 152.933594 195.402344 154.289062 192.75 155.386719 L 188.398438 155.386719 L 188.398438 153.210938 L 190.347656 152.410156 C 195.316406 150.304688 199.765625 148.371094 203.636719 144.503906 C 206.453125 139.671875 207.515625 135.476562 208.195312 129.945312 L 208.714844 125.839844 Z M 844.691406 167.359375 L 846.867188 171.710938 L 844.214844 171.167969 C 837.871094 170.277344 832.007812 169.886719 825.847656 171.917969 C 822.839844 173.183594 821.613281 174.117188 819.25 176.542969 C 817.765625 178.882812 816.429688 181.152344 815.304688 183.683594 C 814.59375 181.746094 814.59375 181.746094 814.214844 179.332031 C 816.164062 175.613281 819.324219 172.835938 822.585938 170.253906 C 829.398438 166.117188 836.984375 166.96875 844.691406 167.359375 " fill-opacity="1" fill-rule="nonzero"/></g><g clip-path="url(#c4218fc1de)"><path fill="#060605" d="M 845.777344 145.589844 L 845.777344 147.769531 L 842.476562 148.089844 C 834.746094 148.929688 828.3125 149.691406 821.835938 154.296875 L 819.316406 155.320312 L 817.480469 156.476562 C 816.085938 159.238281 816.085938 159.238281 815.304688 161.917969 L 813.128906 160.828125 C 816.128906 155.351562 819.5625 152.421875 824.859375 149.136719 C 831.789062 145.210938 838 145.34375 845.777344 145.589844 M 179.691406 104.234375 C 185.066406 103.570312 188.96875 104.207031 194.042969 106.070312 C 198.652344 108.074219 201.65625 110.039062 204.722656 114.027344 L 204.722656 117.292969 L 203.046875 115.703125 C 199.851562 112.769531 196.878906 110.125 193.023438 108.109375 C 187.503906 107.15625 182.011719 107.335938 176.425781 107.496094 C 177.816406 105.894531 177.816406 105.894531 179.691406 104.234375 M 249.347656 128.175781 L 250.4375 130.355469 L 253.769531 129.199219 C 257.96875 127.972656 261.378906 128.390625 265.671875 129.265625 L 265.671875 130.355469 L 263.757812 130.4375 C 258.601562 130.789062 258.601562 130.789062 253.773438 132.484375 C 252.25 133.519531 250.789062 134.648438 249.347656 135.796875 L 247.171875 134.707031 L 247.171875 131.441406 L 249.347656 130.355469 Z M 502.941406 216.335938 L 504.617188 217.648438 C 508.96875 221 513.136719 223.863281 518.175781 226.132812 L 518.175781 228.308594 C 513.152344 227.273438 509.117188 224.957031 505.117188 221.777344 C 503.484375 218.71875 503.484375 218.71875 502.941406 216.335938 M 173.160156 107.496094 L 175.335938 108.585938 L 173.546875 110.136719 L 171.1875 112.191406 L 168.855469 114.21875 C 166.964844 115.90625 165.132812 117.65625 163.367188 119.46875 L 165.542969 110.761719 L 169.894531 109.675781 Z M 390.835938 158.652344 C 392.378906 159.148438 393.921875 159.644531 395.460938 160.148438 L 398.0625 160.988281 C 400.484375 161.863281 402.710938 162.894531 404.984375 164.09375 L 404.984375 165.183594 C 402.808594 165.523438 402.808594 165.523438 399.542969 165.183594 C 396.480469 163.625 393.578125 161.8125 390.835938 159.738281 Z M 588.921875 232.660156 C 592.421875 234.992188 593.433594 236.683594 595.453125 240.28125 L 597.628906 243.546875 C 594.589844 242.351562 593.074219 241.152344 590.824219 238.714844 L 588.921875 235.925781 Z M 363.628906 127.089844 L 364.714844 129.265625 C 363.871094 131.621094 363.871094 131.621094 362.605469 134.300781 L 361.351562 136.996094 L 360.363281 139.0625 C 359.6875 137.140625 359.6875 137.140625 359.273438 134.707031 C 360.402344 131.917969 362.003906 129.644531 363.628906 127.089844 M 601.980469 154.296875 L 605.246094 155.386719 L 598.71875 160.828125 L 596.539062 159.738281 Z M 560.625 159.738281 L 564.976562 161.917969 L 562.800781 164.09375 Z M 433.285156 111.851562 L 437.636719 112.941406 L 437.636719 115.117188 L 433.285156 112.941406 Z M 433.285156 111.851562 " fill-opacity="1" fill-rule="nonzero"/></g></svg>