<svg xmlns="http://www.w3.org/2000/svg" xmlns:xlink="http://www.w3.org/1999/xlink" width="500" zoomAndPan="magnify" viewBox="0 0 375 374.999991" height="500" preserveAspectRatio="xMidYMid meet" version="1.0"><path fill="#060605" d="M 62.648438 144.925781 C 62.898438 144.921875 63.144531 144.921875 63.402344 144.917969 C 64.226562 144.917969 65.046875 144.917969 65.871094 144.917969 L 67.652344 144.914062 C 69.257812 144.90625 70.867188 144.90625 72.472656 144.910156 C 73.816406 144.910156 75.160156 144.90625 76.503906 144.90625 C 79.679688 144.902344 82.851562 144.902344 86.023438 144.902344 C 89.289062 144.90625 92.558594 144.902344 95.824219 144.894531 C 98.632812 144.886719 101.445312 144.886719 104.253906 144.886719 C 105.929688 144.886719 107.605469 144.886719 109.28125 144.882812 C 110.859375 144.875 112.4375 144.875 114.015625 144.882812 C 114.589844 144.882812 115.167969 144.882812 115.742188 144.878906 C 119.304688 144.859375 122.46875 145.015625 125.65625 146.734375 C 128.171875 148.761719 129.855469 150.582031 131.136719 153.585938 C 131.746094 155.332031 131.882812 156.929688 131.886719 158.777344 L 131.890625 159.496094 C 131.894531 160.285156 131.894531 161.078125 131.894531 161.867188 L 131.898438 163.570312 C 131.90625 165.113281 131.90625 166.652344 131.910156 168.195312 C 131.910156 169.160156 131.910156 170.125 131.914062 171.085938 C 131.917969 174.105469 131.921875 177.125 131.921875 180.144531 C 131.925781 183.625 131.929688 187.105469 131.941406 190.585938 C 131.949219 193.277344 131.953125 195.972656 131.953125 198.664062 C 131.953125 200.269531 131.957031 201.878906 131.964844 203.484375 C 131.96875 204.996094 131.96875 206.511719 131.96875 208.023438 C 131.964844 208.578125 131.96875 209.128906 131.972656 209.683594 C 131.988281 212.65625 131.96875 215.496094 130.738281 218.261719 C 128.976562 221.121094 126.484375 223.335938 123.957031 225.511719 C 122.980469 226.375 122.035156 227.265625 121.085938 228.160156 C 114.265625 234.589844 114.265625 234.589844 112.058594 235.472656 C 111.273438 235.597656 111.273438 235.597656 110.457031 235.609375 L 109.648438 235.640625 C 108.328125 235.390625 107.601562 234.867188 106.566406 234.007812 C 105.9375 233.09375 105.472656 232.132812 105.011719 231.125 L 104.636719 230.355469 C 103.945312 228.910156 103.40625 227.472656 102.90625 225.953125 L 102.253906 225.957031 C 97 225.988281 91.75 226.011719 86.496094 226.027344 C 83.957031 226.035156 81.417969 226.046875 78.878906 226.0625 C 76.425781 226.078125 73.972656 226.085938 71.519531 226.089844 C 70.585938 226.09375 69.652344 226.097656 68.71875 226.105469 C 67.40625 226.117188 66.09375 226.121094 64.78125 226.117188 L 63.621094 226.132812 C 60.984375 226.121094 58.792969 225.609375 56.394531 224.488281 C 54.195312 223.167969 52.597656 221.554688 51.269531 219.359375 C 49.652344 216.121094 49.59375 212.925781 49.613281 209.386719 C 49.613281 208.796875 49.609375 208.207031 49.609375 207.617188 C 49.601562 206.023438 49.601562 204.433594 49.609375 202.84375 C 49.609375 201.171875 49.609375 199.5 49.605469 197.828125 C 49.601562 195.023438 49.605469 192.21875 49.613281 189.414062 C 49.621094 186.175781 49.617188 182.941406 49.609375 179.703125 C 49.605469 176.917969 49.601562 174.128906 49.605469 171.34375 C 49.609375 169.683594 49.609375 168.023438 49.605469 166.363281 C 49.601562 164.800781 49.601562 163.238281 49.613281 161.675781 C 49.613281 161.105469 49.613281 160.535156 49.609375 159.964844 C 49.59375 156.820312 49.710938 154.054688 51.269531 151.246094 C 52.726562 149.148438 54.535156 147.417969 56.71875 146.09375 C 58.679688 145.226562 60.519531 144.925781 62.648438 144.925781 M 86.058594 162.964844 C 84.808594 164.113281 83.757812 165.402344 83.128906 166.992188 C 82.921875 169.0625 82.882812 171.0625 83.585938 173.035156 L 84.226562 173.949219 L 84.824219 174.910156 C 86.0625 176.148438 87.308594 176.765625 88.988281 177.246094 C 90.664062 177.480469 92.214844 177.480469 93.847656 177.003906 C 95.460938 176.292969 96.628906 175.28125 97.707031 173.894531 C 98.40625 172.8125 98.683594 171.925781 98.875 170.652344 C 98.917969 169.066406 98.792969 167.636719 98.152344 166.171875 C 97.179688 164.503906 96.066406 163.328125 94.480469 162.230469 C 93.058594 161.582031 91.714844 161.335938 90.140625 161.386719 C 88.628906 161.605469 87.347656 162.148438 86.058594 162.964844 M 113.027344 170.546875 C 111.890625 171.441406 110.894531 172.46875 109.886719 173.5 L 109.148438 174.246094 C 108.621094 174.777344 108.097656 175.3125 107.570312 175.84375 C 106.738281 176.6875 105.90625 177.527344 105.070312 178.367188 C 102.703125 180.757812 100.335938 183.148438 97.972656 185.546875 C 96.523438 187.011719 95.074219 188.476562 93.617188 189.9375 C 93.066406 190.496094 92.515625 191.054688 91.964844 191.617188 C 91.195312 192.398438 90.425781 193.175781 89.652344 193.949219 L 88.964844 194.65625 C 88.03125 195.585938 87.390625 196.207031 86.128906 196.644531 L 85.328125 196.65625 C 84.636719 196.246094 84.636719 196.246094 83.980469 195.601562 L 83.230469 194.882812 L 82.441406 194.089844 L 81.621094 193.292969 C 80.242188 191.945312 78.882812 190.578125 77.523438 189.207031 L 76.773438 188.453125 C 76.304688 187.980469 75.839844 187.503906 75.375 187.023438 L 74.734375 186.371094 L 74.179688 185.796875 C 73.53125 185.234375 72.9375 184.898438 72.144531 184.570312 C 71.0625 184.464844 70.261719 184.410156 69.214844 184.570312 C 67.875 185.226562 67.175781 185.8125 66.308594 187.019531 C 65.882812 188.339844 65.726562 189.25 65.976562 190.613281 C 67.273438 194.472656 72.558594 198.234375 75.378906 201.058594 C 76.292969 201.972656 77.199219 202.886719 78.109375 203.800781 C 78.691406 204.382812 79.273438 204.964844 79.851562 205.546875 L 80.671875 206.375 L 81.4375 207.140625 L 82.109375 207.808594 C 82.785156 208.394531 83.40625 208.757812 84.226562 209.105469 C 85.015625 209.25 85.015625 209.25 85.832031 209.242188 L 86.640625 209.273438 C 87.90625 209.035156 88.679688 208.390625 89.722656 207.640625 C 90.414062 207.011719 91.089844 206.367188 91.753906 205.703125 L 92.328125 205.132812 C 92.945312 204.515625 93.566406 203.898438 94.183594 203.277344 L 95.476562 201.984375 C 96.378906 201.082031 97.28125 200.183594 98.179688 199.277344 C 99.335938 198.121094 100.492188 196.964844 101.652344 195.808594 C 102.542969 194.917969 103.433594 194.03125 104.320312 193.140625 C 104.75 192.710938 105.175781 192.285156 105.605469 191.859375 C 106.199219 191.265625 106.792969 190.671875 107.382812 190.074219 L 108.410156 189.046875 L 109.128906 188.230469 L 109.128906 187.5 L 109.777344 187.226562 C 110.730469 186.691406 111.242188 186.113281 111.945312 185.28125 C 113.859375 183.089844 115.921875 181.0625 118.007812 179.035156 L 118.800781 178.257812 L 119.515625 177.558594 C 120.128906 176.863281 120.503906 176.273438 120.847656 175.414062 C 121.03125 174.164062 121.03125 174.164062 120.847656 172.851562 C 120.175781 171.503906 119.609375 170.804688 118.355469 169.96875 C 116.257812 169.226562 114.859375 169.261719 113.027344 170.546875 M 176.417969 163.824219 C 178.726562 165.105469 180.25 166.558594 181.707031 168.738281 C 182.972656 170.9375 183.160156 173.292969 183.472656 175.78125 L 173.949219 175.78125 L 172.851562 173.21875 C 171.472656 171.835938 170.324219 171.15625 168.457031 170.652344 C 165.964844 170.433594 163.164062 170.207031 160.835938 171.25 C 159.644531 172.050781 159.644531 172.050781 158.914062 173.125 C 158.460938 174.691406 158.621094 175.648438 158.933594 177.246094 L 159.300781 178.34375 C 159.964844 178.761719 159.964844 178.761719 160.765625 179.078125 L 161.53125 179.417969 C 164.570312 180.675781 167.71875 181.492188 170.894531 182.339844 C 174.707031 183.390625 178.007812 184.675781 180.917969 187.414062 C 182.535156 189.242188 183.402344 191.347656 183.976562 193.703125 C 184.410156 196.378906 184.160156 198.910156 183.242188 201.460938 C 182.25 203.703125 180.925781 205.59375 179.054688 207.183594 C 176.449219 209.042969 173.457031 210.175781 170.289062 210.570312 C 165.183594 210.882812 160.292969 210.847656 155.609375 208.554688 C 152.910156 206.96875 150.796875 204.976562 149.207031 202.269531 C 148.109375 200.054688 147.640625 198.023438 147.582031 195.554688 C 148.796875 195.277344 150.027344 195.140625 151.273438 195.15625 L 152.308594 195.15625 L 153.375 195.167969 L 154.460938 195.171875 C 155.339844 195.175781 156.222656 195.183594 157.105469 195.191406 L 157.375 195.984375 C 158.023438 197.84375 158.023438 197.84375 159.089844 199.476562 C 160.46875 200.65625 161.84375 201.238281 163.582031 201.644531 C 166.289062 201.953125 168.710938 201.925781 171.3125 201.035156 C 172.207031 200.675781 172.207031 200.675781 173.242188 199.90625 C 173.925781 198.890625 174.125 198.378906 174.316406 197.203125 C 174.375 196.121094 174.316406 195.5625 173.925781 194.527344 C 172.542969 192.960938 171.132812 192.253906 169.191406 191.574219 C 167.703125 191.097656 166.214844 190.683594 164.703125 190.292969 C 155.40625 187.878906 155.40625 187.878906 152.171875 184.847656 C 150.636719 183.085938 149.472656 181.121094 148.910156 178.847656 C 148.378906 175.714844 148.691406 172.914062 149.78125 169.921875 C 150.933594 167.746094 152.394531 165.933594 154.4375 164.542969 C 161.164062 160.691406 169.464844 160.390625 176.417969 163.824219 M 210.9375 175.253906 C 213.828125 176.304688 216.429688 177.820312 218.558594 180.0625 C 220.855469 182.929688 222.210938 186.207031 222.871094 189.804688 C 223.308594 193.746094 222.84375 197.308594 221.378906 201.003906 C 220.554688 202.703125 219.5625 204.078125 218.261719 205.445312 L 217.683594 206.054688 C 215.542969 208.078125 212.722656 209.480469 209.898438 210.257812 C 206.46875 211.054688 202.59375 210.9375 199.21875 209.976562 C 196.199219 208.890625 193.546875 207.382812 191.355469 205.015625 C 189.074219 202.273438 187.945312 199.171875 187.226562 195.695312 C 186.917969 191.558594 187.269531 187.578125 189.011719 183.746094 C 190.453125 181.121094 192.5 178.875 194.914062 177.109375 C 199.671875 174.230469 205.621094 173.792969 210.9375 175.253906 M 200.289062 184.339844 C 198.953125 185.410156 197.976562 186.457031 197.226562 188.003906 C 196.351562 190.304688 196.128906 192.414062 196.519531 194.847656 C 197.003906 196.941406 197.917969 198.570312 199.371094 200.148438 C 200.269531 200.972656 201.132812 201.449219 202.261719 201.898438 C 204.179688 202.253906 205.871094 202.433594 207.773438 201.910156 C 209.242188 201.335938 210.367188 200.652344 211.441406 199.492188 C 212.46875 198.136719 213.175781 196.867188 213.5 195.191406 C 213.730469 192.78125 213.816406 190.472656 212.859375 188.210938 C 212.09375 186.769531 211.328125 185.460938 209.960938 184.515625 C 208.257812 183.496094 207.097656 183.132812 205.148438 183.035156 C 203.335938 183.078125 201.832031 183.320312 200.289062 184.339844 M 241.265625 174.566406 L 242.140625 174.574219 C 245.253906 174.640625 247.824219 175.257812 250.578125 176.742188 C 252.46875 177.964844 253.730469 179.355469 254.882812 181.273438 C 256.398438 184.59375 256.546875 187.804688 256.492188 191.386719 C 256.488281 191.921875 256.484375 192.457031 256.484375 192.992188 C 256.480469 194.386719 256.464844 195.78125 256.449219 197.175781 C 256.433594 198.605469 256.425781 200.03125 256.417969 201.460938 C 256.402344 204.253906 256.378906 207.046875 256.347656 209.839844 L 247.925781 209.839844 L 247.558594 206.542969 L 246.980469 207.050781 C 244.890625 208.792969 242.910156 209.992188 240.234375 210.570312 C 237.164062 210.875 234.296875 210.695312 231.445312 209.472656 C 229.460938 208.421875 227.945312 206.925781 226.683594 205.078125 C 225.804688 203.152344 225.367188 201.101562 225.460938 198.980469 C 225.714844 197.214844 226.191406 195.660156 227.050781 194.089844 C 228.425781 192.414062 230.050781 191.199219 232.019531 190.292969 C 236.960938 188.578125 242.402344 188.867188 247.558594 188.964844 C 247.453125 188.375 247.34375 187.789062 247.234375 187.203125 L 247.050781 186.210938 C 246.855469 185.230469 246.855469 185.230469 246.164062 184.203125 C 245.285156 183.402344 244.652344 183.109375 243.53125 182.738281 C 241.675781 182.53125 239.992188 182.574219 238.21875 183.175781 C 237.203125 183.910156 236.753906 184.546875 236.207031 185.667969 L 235.839844 186.402344 L 227.050781 186.765625 C 226.683594 185.667969 226.683594 185.667969 226.851562 184.648438 C 227.605469 181.945312 228.550781 180.019531 230.53125 178.011719 C 233.628906 175.414062 237.300781 174.539062 241.265625 174.566406 M 236.230469 196.058594 C 235.457031 196.601562 235.457031 196.601562 235.058594 197.320312 C 234.59375 198.492188 234.714844 199.410156 234.886719 200.636719 C 235.074219 201.511719 235.074219 201.511719 235.929688 202.332031 C 237.558594 203.21875 239.042969 203.359375 240.902344 203.324219 C 242.378906 203.183594 243.671875 202.828125 244.996094 202.148438 C 245.996094 201.417969 246.625 200.6875 247.191406 199.585938 C 247.589844 198.132812 247.847656 196.695312 247.925781 195.191406 L 247.558594 194.824219 C 246.457031 194.777344 245.363281 194.757812 244.261719 194.753906 L 243.34375 194.742188 C 240.851562 194.734375 238.503906 194.996094 236.230469 196.058594 M 316.617188 175.027344 C 318.65625 175.84375 320.398438 176.738281 321.898438 178.34375 C 323.65625 180.738281 324.628906 183.128906 325.195312 186.035156 C 325.335938 187.902344 325.324219 189.765625 325.300781 191.636719 C 325.300781 192.164062 325.296875 192.691406 325.296875 193.21875 C 325.292969 194.59375 325.285156 195.96875 325.269531 197.347656 C 325.257812 198.753906 325.253906 200.164062 325.25 201.574219 C 325.238281 204.328125 325.21875 207.085938 325.195312 209.839844 L 316.039062 209.839844 L 316.023438 207.902344 C 316.003906 205.78125 315.980469 203.660156 315.953125 201.539062 C 315.9375 200.253906 315.921875 198.96875 315.914062 197.683594 C 315.902344 196.203125 315.882812 194.726562 315.859375 193.246094 L 315.855469 191.859375 C 315.8125 189.425781 315.667969 187.496094 314.574219 185.300781 C 313.609375 184.246094 312.652344 183.5625 311.277344 183.105469 C 309.296875 182.902344 307.523438 183.0625 305.683594 183.847656 C 304.675781 184.417969 304.175781 185.042969 303.589844 186.035156 C 302.664062 188.476562 302.730469 190.90625 302.703125 193.496094 L 302.683594 194.914062 C 302.664062 196.148438 302.648438 197.382812 302.636719 198.621094 C 302.621094 199.886719 302.601562 201.148438 302.585938 202.414062 C 302.546875 204.890625 302.519531 207.363281 302.488281 209.839844 L 293.335938 209.839844 L 293.335938 175.414062 L 302.125 175.414062 L 302.488281 179.078125 L 303.199219 178.09375 C 304.402344 176.640625 305.914062 175.8125 307.617188 175.046875 C 310.285156 174.128906 313.917969 174.316406 316.617188 175.027344 M 262.207031 160.765625 L 270.996094 160.765625 L 270.996094 209.839844 L 262.207031 209.839844 Z M 278.320312 175.414062 L 287.476562 175.414062 L 287.476562 209.839844 L 278.320312 209.839844 Z M 285.644531 160.398438 C 286.878906 160.996094 286.878906 160.996094 287.839844 161.863281 C 288.617188 163.113281 288.914062 163.890625 288.988281 165.34375 C 288.941406 166.308594 288.832031 167.160156 288.574219 168.089844 C 287.71875 169.238281 286.90625 169.816406 285.714844 170.585938 C 284.558594 171.015625 283.589844 171.203125 282.355469 171.148438 C 281.050781 170.921875 280.074219 170.386719 279.050781 169.554688 C 278.160156 168.570312 278.160156 168.570312 277.585938 167.359375 C 277.335938 165.941406 277.363281 164.679688 277.855469 163.320312 C 278.410156 162.25 279.003906 161.535156 279.96875 160.8125 C 281.925781 159.929688 283.5625 159.941406 285.644531 160.398438 " fill-opacity="1" fill-rule="nonzero"/><path fill="#060605" d="M 278.320312 175.414062 L 287.476562 175.414062 L 287.476562 209.839844 L 278.320312 209.839844 Z M 279.050781 176.148438 L 278.6875 209.105469 L 286.742188 209.105469 L 286.742188 176.148438 Z M 293.335938 175.414062 L 302.125 175.414062 L 302.125 179.441406 L 301.390625 178.710938 L 301.390625 176.148438 L 294.066406 176.148438 L 294.066406 209.105469 L 301.757812 209.105469 C 301.753906 208.488281 301.75 207.871094 301.746094 207.234375 C 301.734375 205.199219 301.726562 203.160156 301.71875 201.121094 C 301.714844 199.886719 301.710938 198.652344 301.703125 197.414062 C 301.695312 195.996094 301.6875 194.574219 301.6875 193.15625 L 301.675781 191.808594 L 301.675781 190.5625 L 301.667969 189.464844 L 301.757812 188.597656 L 302.488281 187.867188 L 302.488281 209.839844 L 293.335938 209.839844 Z M 50.171875 156.738281 L 50.539062 156.738281 L 50.539062 157.648438 C 50.550781 164.96875 50.574219 172.289062 50.605469 179.609375 C 50.617188 183.152344 50.632812 186.691406 50.636719 190.230469 C 50.640625 193.316406 50.652344 196.40625 50.667969 199.492188 C 50.675781 201.125 50.679688 202.757812 50.679688 204.390625 C 50.679688 205.929688 50.6875 207.472656 50.699219 209.011719 C 50.703125 209.574219 50.703125 210.136719 50.699219 210.699219 C 50.691406 214.167969 51.007812 216.976562 52.75 220.027344 C 53.371094 221.011719 54.066406 221.875 54.933594 222.65625 L 53.832031 222.65625 C 52.199219 221.300781 51.261719 219.496094 50.449219 217.570312 C 49.886719 216.007812 49.757812 214.664062 49.757812 212.996094 L 49.753906 211.539062 L 49.757812 209.945312 L 49.753906 208.261719 C 49.753906 206.738281 49.753906 205.21875 49.753906 203.695312 C 49.757812 202.101562 49.753906 200.511719 49.753906 198.917969 C 49.753906 196.242188 49.753906 193.570312 49.757812 190.894531 C 49.757812 187.800781 49.757812 184.707031 49.757812 181.617188 C 49.753906 178.960938 49.753906 176.304688 49.753906 173.652344 C 49.757812 172.066406 49.753906 170.480469 49.753906 168.894531 C 49.753906 167.402344 49.753906 165.910156 49.757812 164.421875 C 49.757812 163.871094 49.757812 163.324219 49.757812 162.777344 C 49.753906 162.03125 49.757812 161.285156 49.757812 160.539062 L 49.757812 159.269531 C 49.796875 158.359375 49.902344 157.605469 50.171875 156.738281 M 60.058594 145.019531 C 61.09375 144.925781 61.09375 144.925781 62.445312 144.925781 L 63.199219 144.921875 C 64.035156 144.921875 64.871094 144.921875 65.703125 144.925781 C 66.300781 144.925781 66.898438 144.921875 67.496094 144.921875 C 69.121094 144.917969 70.746094 144.917969 72.371094 144.921875 C 74.070312 144.921875 75.769531 144.921875 77.46875 144.921875 C 80.320312 144.917969 83.171875 144.921875 86.027344 144.925781 C 89.328125 144.925781 92.628906 144.925781 95.929688 144.921875 C 98.757812 144.917969 101.589844 144.917969 104.421875 144.921875 C 106.113281 144.921875 107.804688 144.921875 109.496094 144.917969 C 111.089844 144.917969 112.679688 144.917969 114.269531 144.921875 C 114.855469 144.925781 115.441406 144.925781 116.023438 144.921875 C 116.820312 144.921875 117.617188 144.921875 118.414062 144.925781 L 119.765625 144.925781 C 120.847656 145.019531 120.847656 145.019531 121.949219 145.75 C 120.472656 146.105469 119.105469 146.160156 117.589844 146.148438 L 116.832031 146.144531 C 115.996094 146.140625 115.164062 146.132812 114.328125 146.125 L 112.53125 146.113281 C 110.90625 146.105469 109.28125 146.09375 107.65625 146.082031 C 105.957031 146.070312 104.257812 146.058594 102.558594 146.046875 C 99.34375 146.027344 96.125 146.003906 92.910156 145.980469 C 89.246094 145.957031 85.585938 145.929688 81.921875 145.90625 C 74.390625 145.855469 66.859375 145.804688 59.328125 145.75 Z M 314.574219 184.570312 L 315.308594 184.570312 C 316.375 186.421875 316.875 188.046875 316.9375 190.191406 C 316.9375 191.070312 316.929688 191.953125 316.914062 192.835938 L 316.910156 194.25 C 316.902344 195.480469 316.890625 196.707031 316.875 197.9375 C 316.859375 199.199219 316.851562 200.457031 316.84375 201.71875 C 316.828125 204.179688 316.800781 206.644531 316.773438 209.105469 L 324.828125 209.105469 L 324.828125 187.5 L 325.195312 187.5 L 325.195312 209.839844 L 316.039062 209.839844 L 316.023438 207.914062 C 316.003906 205.800781 315.980469 203.6875 315.953125 201.578125 C 315.9375 200.296875 315.921875 199.019531 315.914062 197.738281 C 315.902344 196.265625 315.882812 194.789062 315.859375 193.316406 L 315.855469 191.941406 C 315.808594 189.308594 315.503906 187.042969 314.574219 184.570312 M 252.683594 179.441406 C 253.371094 179.726562 253.371094 179.726562 254.148438 180.175781 C 254.589844 180.796875 254.589844 180.796875 254.929688 181.527344 L 255.273438 182.238281 C 256.058594 184.234375 256.4375 186.035156 256.429688 188.179688 L 256.429688 188.894531 C 256.429688 189.664062 256.425781 190.4375 256.417969 191.207031 L 256.417969 192.820312 C 256.414062 194.230469 256.40625 195.640625 256.398438 197.050781 C 256.390625 198.492188 256.386719 199.929688 256.382812 201.371094 C 256.375 204.195312 256.363281 207.015625 256.347656 209.839844 L 247.925781 209.839844 L 247.925781 206.175781 L 248.65625 206.542969 L 248.292969 209.105469 L 255.617188 209.105469 C 255.609375 206.03125 255.59375 202.957031 255.566406 199.878906 C 255.554688 198.453125 255.546875 197.023438 255.542969 195.59375 C 255.542969 194.210938 255.53125 192.832031 255.515625 191.449219 C 255.511719 190.925781 255.507812 190.402344 255.511719 189.878906 C 255.519531 186.433594 255.058594 183.621094 253.417969 180.542969 Z M 65.550781 187.867188 L 65.917969 187.867188 L 65.960938 188.539062 C 66.136719 189.945312 66.371094 191.132812 67.203125 192.304688 C 70.183594 195.492188 73.28125 198.566406 76.378906 201.644531 L 78.132812 203.394531 C 79.554688 204.8125 80.976562 206.226562 82.398438 207.640625 L 81.296875 208.007812 L 80.046875 206.46875 C 79.28125 205.597656 78.460938 204.792969 77.636719 203.980469 L 76.5625 202.902344 L 76.003906 202.347656 L 73.773438 200.117188 C 73.261719 199.601562 72.75 199.089844 72.242188 198.574219 C 71.4375 197.742188 71.4375 197.742188 70.542969 197.089844 C 69.203125 195.976562 68.121094 194.703125 67.015625 193.359375 L 66.125 192.285156 C 65.4375 190.9375 65.433594 189.992188 65.5 188.511719 Z M 148.316406 198.851562 L 149.046875 198.851562 L 149.277344 199.628906 C 149.980469 201.789062 150.746094 203.496094 152.3125 205.152344 C 153.660156 206.316406 155.171875 207.175781 156.738281 208.007812 L 157.835938 207.273438 L 158.203125 209.105469 L 160.765625 209.472656 L 160.765625 209.839844 C 158.226562 209.699219 156.328125 209 154.175781 207.640625 C 151.722656 205.839844 150.074219 203.917969 148.667969 201.226562 C 148.316406 200.316406 148.316406 200.316406 148.316406 198.851562 M 103.636719 227.050781 C 104.828125 228.492188 105.550781 230.140625 106.3125 231.828125 C 106.769531 232.789062 107.132812 233.523438 108.003906 234.15625 C 109.5 234.589844 110.894531 234.648438 112.425781 234.375 C 113.527344 233.765625 114.441406 233.039062 115.355469 232.175781 L 116.089844 232.542969 C 115.695312 232.894531 115.296875 233.246094 114.898438 233.597656 L 114.230469 234.1875 C 113.277344 234.9375 112.476562 235.410156 111.273438 235.597656 L 110.457031 235.609375 L 109.648438 235.640625 C 108.324219 235.390625 107.601562 234.871094 106.566406 234.007812 C 105.921875 233.074219 105.441406 232.085938 104.964844 231.054688 L 104.570312 230.257812 C 104.03125 229.132812 103.636719 228.308594 103.636719 227.050781 M 196.289062 176.511719 L 196.65625 177.246094 L 195.863281 177.757812 C 193 179.707031 191.105469 181.679688 189.597656 184.808594 C 188.917969 186.417969 188.417969 187.949219 188.230469 189.695312 C 187.832031 189.09375 187.832031 189.09375 187.5 188.230469 C 187.9375 185.554688 189.1875 183.179688 190.796875 181.027344 C 192.363281 179.207031 194.078125 177.511719 196.289062 176.511719 M 210.203125 184.570312 C 211.234375 184.84375 211.234375 184.84375 212.402344 185.300781 C 213.089844 186.082031 213.089844 186.082031 213.5 186.765625 L 213.132812 187.5 L 213.867188 187.867188 C 214.496094 190.691406 214.515625 193.835938 213.867188 196.65625 L 213.132812 196.65625 L 213.1875 195.328125 C 213.375 191.65625 213.375 191.65625 212.492188 188.140625 C 212.105469 187.417969 212.105469 187.417969 211.667969 186.765625 L 211.246094 186.085938 C 210.914062 185.570312 210.566406 185.066406 210.203125 184.570312 M 98.875 166.992188 L 99.609375 167.722656 C 99.671875 169.5625 99.449219 171.460938 98.761719 173.171875 C 97.96875 174.640625 97.3125 175.726562 95.90625 176.667969 C 95.070312 177.152344 94.277344 177.609375 93.382812 177.976562 L 91.917969 177.976562 L 91.917969 177.246094 L 92.574219 176.976562 C 94.246094 176.269531 95.742188 175.617188 97.046875 174.316406 C 97.996094 172.691406 98.351562 171.28125 98.578125 169.417969 L 98.753906 168.035156 Z M 312.742188 182.007812 L 313.476562 183.472656 L 312.585938 183.289062 C 310.449219 182.988281 308.476562 182.855469 306.402344 183.539062 C 305.390625 183.964844 304.980469 184.28125 304.183594 185.097656 C 303.683594 185.882812 303.234375 186.648438 302.855469 187.5 C 302.617188 186.847656 302.617188 186.847656 302.488281 186.035156 C 303.144531 184.785156 304.210938 183.851562 305.308594 182.980469 C 307.597656 181.589844 310.152344 181.875 312.742188 182.007812 " fill-opacity="1" fill-rule="nonzero"/><path fill="#060605" d="M 313.109375 174.683594 L 313.109375 175.414062 L 312 175.523438 C 309.398438 175.804688 307.234375 176.0625 305.054688 177.613281 L 304.207031 177.957031 L 303.589844 178.34375 C 303.117188 179.273438 303.117188 179.273438 302.855469 180.175781 L 302.125 179.808594 C 303.132812 177.964844 304.289062 176.980469 306.070312 175.875 C 308.402344 174.554688 310.492188 174.597656 313.109375 174.683594 M 88.988281 160.765625 C 90.796875 160.542969 92.109375 160.757812 93.820312 161.382812 C 95.371094 162.058594 96.378906 162.71875 97.410156 164.0625 L 97.410156 165.160156 L 96.847656 164.625 C 95.773438 163.640625 94.773438 162.75 93.476562 162.070312 C 91.617188 161.75 89.769531 161.8125 87.890625 161.863281 C 88.359375 161.324219 88.359375 161.324219 88.988281 160.765625 M 112.425781 168.824219 L 112.792969 169.554688 L 113.914062 169.167969 C 115.328125 168.753906 116.472656 168.894531 117.917969 169.1875 L 117.917969 169.554688 L 117.277344 169.585938 C 115.539062 169.703125 115.539062 169.703125 113.914062 170.273438 C 113.402344 170.621094 112.914062 171 112.425781 171.386719 L 111.695312 171.019531 L 111.695312 169.921875 L 112.425781 169.554688 Z M 197.753906 198.484375 L 198.316406 198.929688 C 199.78125 200.054688 201.183594 201.019531 202.878906 201.78125 L 202.878906 202.515625 C 201.191406 202.164062 199.832031 201.386719 198.484375 200.316406 C 197.9375 199.289062 197.9375 199.289062 197.753906 198.484375 M 86.792969 161.863281 L 87.523438 162.230469 L 86.921875 162.753906 L 86.128906 163.445312 L 85.34375 164.125 C 84.707031 164.695312 84.089844 165.285156 83.496094 165.894531 L 84.226562 162.964844 L 85.691406 162.597656 Z M 160.035156 179.078125 C 160.554688 179.242188 161.070312 179.410156 161.589844 179.582031 L 162.464844 179.863281 C 163.28125 180.15625 164.03125 180.503906 164.792969 180.90625 L 164.792969 181.273438 C 164.0625 181.390625 164.0625 181.390625 162.964844 181.273438 C 161.933594 180.75 160.957031 180.140625 160.035156 179.441406 Z M 226.683594 203.980469 C 227.863281 204.765625 228.203125 205.332031 228.882812 206.542969 L 229.613281 207.640625 C 228.59375 207.238281 228.082031 206.835938 227.324219 206.015625 L 226.683594 205.078125 Z M 150.878906 168.457031 L 151.246094 169.1875 C 150.960938 169.980469 150.960938 169.980469 150.535156 170.882812 L 150.113281 171.789062 L 149.78125 172.484375 C 149.554688 171.839844 149.554688 171.839844 149.414062 171.019531 C 149.792969 170.082031 150.332031 169.316406 150.878906 168.457031 M 231.078125 177.613281 L 232.175781 177.976562 L 229.980469 179.808594 L 229.246094 179.441406 Z M 217.164062 179.441406 L 218.628906 180.175781 L 217.894531 180.90625 Z M 174.316406 163.328125 L 175.78125 163.695312 L 175.78125 164.429688 L 174.316406 163.695312 Z M 174.316406 163.328125 " fill-opacity="1" fill-rule="nonzero"/></svg>